<?xml version="1.0" standalone="no"?>
<!DOCTYPE svg PUBLIC "-//W3C//DTD SVG 20010904//EN"
 "http://www.w3.org/TR/2001/REC-SVG-20010904/DTD/svg10.dtd">
<svg version="1.0" xmlns="http://www.w3.org/2000/svg"
 width="300.000000pt" height="300.000000pt" viewBox="0 0 300.000000 300.000000"
 preserveAspectRatio="xMidYMid meet">
<metadata>
Created by potrace 1.10, written by Peter Selinger 2001-2011
</metadata>
<g transform="translate(0.000000,300.000000) scale(0.100000,-0.100000)"
fill="#000000" stroke="none">
<path d="M1414 2810 c-6 -6 -62 -22 -124 -36 -117 -27 -118 -26 -200 3 -8 3 3
-8 25 -23 22 -15 93 -73 158 -128 149 -126 209 -177 270 -223 41 -33 47 -42
49 -78 1 -38 1 -38 5 -6 l4 33 25 -23 c13 -12 24 -31 24 -41 0 -10 4 -18 9
-18 5 0 11 -12 14 -26 4 -22 2 -25 -16 -20 -17 4 -16 1 8 -18 25 -20 27 -26
16 -39 -7 -9 -10 -26 -6 -39 6 -22 5 -21 -19 5 -23 25 -38 26 -18 1 4 -5 -1
-1 -11 9 -9 11 -20 37 -23 58 -4 22 -11 42 -15 45 -5 3 -9 10 -9 16 0 6 12 1
28 -13 41 -36 -49 62 -183 199 -66 67 -124 122 -128 122 -5 0 46 -58 113 -129
151 -160 170 -186 170 -228 0 -47 -17 -41 -41 15 -28 65 -140 211 -248 325
-50 52 -88 96 -86 99 3 3 -23 27 -57 53 -90 69 -97 73 -64 37 26 -28 27 -32
11 -32 -35 0 -223 -122 -288 -187 -35 -34 -74 -67 -88 -73 -21 -9 -19 -9 11
-3 40 7 47 7 167 -7 178 -20 343 -93 343 -151 0 -29 -46 -36 -73 -11 -29 26
-118 82 -131 82 -6 0 11 -15 38 -32 55 -37 65 -52 39 -62 -12 -5 -28 6 -57 41
-23 26 -40 51 -38 55 1 4 -1 7 -5 6 -5 -1 -26 6 -48 16 -116 51 -285 63 -285
20 0 -7 -8 -19 -18 -26 -48 -34 -158 -239 -202 -376 -13 -40 -15 -42 -48 -40
-31 3 -36 0 -46 -29 -6 -18 -10 -71 -8 -118 3 -70 6 -86 18 -81 8 3 14 0 14
-7 2 -254 9 -359 29 -437 24 -94 163 -387 169 -357 2 10 10 16 17 13 7 -2 -7
28 -31 67 -84 137 -139 313 -150 482 -4 57 -11 102 -15 99 -5 -3 -9 16 -9 43
1 44 2 47 15 29 15 -20 15 -20 15 0 0 16 2 17 10 4 5 -8 10 -54 10 -102 0
-211 42 -358 165 -578 14 -25 25 -39 25 -31 0 7 -16 43 -37 79 -81 149 -97
192 -129 357 -17 88 -19 219 -3 209 11 -6 198 -255 275 -365 166 -238 234
-327 234 -303 -1 15 -490 700 -561 785 -39 47 -39 47 -39 136 0 49 3 92 6 96
7 7 68 -58 164 -173 63 -76 96 -112 70 -75 -8 11 -34 43 -57 71 -24 28 -43 59
-43 69 0 10 -3 15 -7 12 -3 -4 -17 2 -29 14 -26 24 -25 43 8 149 42 133 176
358 225 377 40 16 190 -45 255 -103 l36 -33 -71 -21 c-104 -32 -231 -99 -242
-129 -4 -10 1 -10 19 3 14 9 37 16 52 16 16 0 28 6 31 18 2 10 28 29 56 42 61
29 127 31 176 6 18 -10 30 -13 27 -7 -10 15 0 14 34 -4 17 -9 30 -20 30 -25 0
-14 -13 -12 -29 3 -11 10 -13 9 -8 -5 4 -10 2 -18 -3 -18 -5 0 -21 -12 -35
-26 l-25 -25 -64 25 c-63 26 -146 35 -146 17 0 -5 -9 -13 -21 -16 -25 -8 -99
-73 -99 -87 0 -5 12 0 26 11 30 24 92 28 143 10 38 -13 39 -21 5 -40 -40 -21
-120 -113 -159 -183 -40 -73 -49 -116 -13 -71 27 34 80 57 113 49 14 -3 25 -8
25 -10 0 -2 -12 -20 -26 -41 -40 -59 -72 -125 -99 -209 -32 -99 -32 -106 6
-61 29 36 86 74 95 64 3 -2 0 -24 -5 -48 -22 -92 -8 -278 14 -192 3 15 20 47
36 71 17 25 28 47 25 49 -3 3 -18 -15 -33 -40 -15 -26 -32 -47 -37 -47 -5 0
-6 32 -1 78 4 42 9 96 11 120 1 29 10 52 26 69 22 25 22 25 1 14 -11 -6 -34
-23 -50 -38 -16 -16 -39 -37 -52 -48 l-23 -20 7 35 c8 38 49 126 95 205 l29
49 -30 13 c-17 7 -28 17 -24 23 9 15 -12 12 -48 -7 -35 -18 -36 -20 27 60 52
65 126 101 126 62 0 -13 7 -15 36 -9 30 5 35 4 29 -7 -9 -14 13 0 43 29 7 6
18 12 23 12 17 0 -10 -38 -46 -66 -19 -14 -45 -44 -57 -65 -12 -22 -25 -39
-30 -39 -4 0 -8 -5 -8 -11 0 -6 -9 -22 -20 -36 -11 -14 -20 -35 -20 -46 0 -12
18 9 49 55 98 151 211 230 285 202 9 -3 13 -10 10 -15 -3 -5 3 -6 13 -2 14 5
12 -1 -8 -23 -34 -38 -86 -115 -105 -157 l-15 -32 5 48 c6 52 40 127 58 127 6
0 9 3 5 6 -6 7 -117 -41 -117 -51 0 -3 18 4 41 16 28 14 40 16 37 7 -3 -7 -26
-23 -53 -36 -54 -26 -197 -163 -177 -169 13 -5 17 -53 3 -53 -10 0 5 -74 23
-110 7 -14 9 -38 6 -55 -3 -16 -3 -43 0 -60 5 -24 7 -18 11 30 7 80 43 159
137 295 2 2 6 -1 10 -7 11 -18 27 -3 55 53 23 45 43 65 69 68 4 1 24 21 44 46
l38 45 -40 -37 c-58 -56 -92 -49 -37 7 41 41 83 60 94 43 7 -11 12 -6 11 12 0
3 10 6 22 6 17 1 6 -14 -55 -75 -97 -96 -122 -154 -122 -281 -1 -73 4 -96 32
-168 18 -46 47 -100 65 -120 24 -28 26 -33 9 -24 -33 18 -58 55 -84 124 -12
34 -31 70 -41 80 -26 26 -68 114 -68 142 0 44 16 36 29 -15 8 -30 17 -46 23
-42 6 3 8 1 5 -4 -4 -6 -1 -27 6 -46 11 -33 12 -27 12 71 0 96 3 113 28 166
15 32 26 61 24 63 -9 8 -58 -121 -64 -167 -8 -66 -20 -72 -29 -15 -6 44 -7 45
-25 29 -24 -21 -67 -93 -45 -75 13 11 16 9 21 -11 5 -17 -3 -39 -24 -74 -36
-58 -72 -159 -64 -179 9 -25 24 -17 17 9 -3 13 -1 27 5 30 6 4 11 1 11 -6 0
-17 53 -127 74 -153 9 -11 0 14 -19 55 -49 106 -54 153 -21 218 42 83 55 70
49 -50 -6 -108 5 -192 31 -249 10 -21 13 -24 9 -9 -4 14 -7 42 -8 62 0 21 -4
40 -8 44 -4 4 -7 17 -7 28 0 15 7 9 25 -23 30 -51 31 -58 8 -40 -16 11 -16 11
-5 -1 7 -8 16 -15 21 -15 15 0 171 -178 171 -196 0 -18 -28 -8 -44 16 -9 14
-22 25 -30 25 -7 0 -34 11 -60 24 l-48 24 24 -26 c18 -19 19 -24 6 -19 -52 20
-53 20 -42 8 8 -9 171 -77 279 -115 19 -7 19 -7 2 7 -13 11 -15 16 -5 20 7 2
-5 12 -27 21 -32 13 -51 33 -93 97 -30 44 -51 83 -49 86 3 2 34 -3 69 -12 34
-10 76 -19 91 -20 16 -2 42 -16 58 -31 16 -15 32 -24 36 -20 5 5 0 13 -11 20
-66 40 -63 42 39 33 54 -4 106 -13 115 -20 42 -30 103 -89 86 -83 -40 14 -104
25 -186 32 -64 5 -99 14 -142 35 -32 16 -58 27 -58 24 0 -2 31 -21 70 -40 38
-19 84 -50 103 -69 25 -25 38 -31 50 -25 10 6 18 5 22 -1 3 -5 11 -10 17 -10
17 0 -37 39 -84 59 -33 15 -38 20 -20 20 13 1 33 -4 44 -10 12 -6 47 -13 78
-14 93 -5 170 -59 170 -119 0 -8 8 -21 18 -28 10 -7 17 -27 18 -46 1 -22 -2
-29 -7 -20 -6 9 -9 7 -9 -8 0 -19 -28 -54 -43 -54 -4 0 -5 10 -2 23 4 13 -3
46 -14 75 -12 29 -21 55 -21 58 0 14 44 -21 60 -49 11 -18 20 -27 20 -20 0 26
-83 104 -96 90 -3 -2 5 -26 16 -52 21 -48 20 -69 -2 -47 -14 14 -42 16 -34 3
3 -4 -12 -5 -34 -1 -22 4 -40 5 -41 1 0 -3 -7 12 -15 33 -8 22 -12 41 -10 43
2 2 24 -12 50 -32 25 -19 46 -31 46 -26 0 6 -5 13 -11 17 -8 5 -8 9 1 14 18
11 -45 68 -88 80 -20 5 -38 8 -40 6 -2 -2 6 -22 17 -45 31 -61 25 -70 -15 -22
-20 23 -70 67 -111 97 -41 30 -88 75 -105 99 -18 25 -33 43 -36 41 -8 -9 50
-115 67 -121 9 -3 26 -13 37 -23 11 -9 44 -34 75 -54 30 -21 65 -49 77 -63 13
-14 27 -23 32 -20 22 14 8 -24 -14 -38 -23 -15 -24 -15 -36 13 -14 33 -94 120
-111 120 -8 0 -9 -4 0 -13 6 -8 8 -16 5 -20 -3 -3 7 -13 22 -23 28 -19 87 -94
80 -102 -3 -2 -20 13 -38 34 -38 43 -118 84 -166 84 -29 0 -31 -2 -21 -18 8
-13 20 -17 36 -14 30 6 105 -22 128 -48 22 -24 14 -25 -26 -5 -16 9 -49 19
-74 24 -44 8 -45 8 -39 -16 5 -17 -32 15 -120 104 -102 104 -124 122 -115 96
6 -18 15 -33 20 -33 4 0 51 -42 104 -94 67 -67 95 -102 95 -118 -1 -22 -1 -22
-28 7 -15 17 -38 39 -52 50 -14 11 -6 -1 18 -27 41 -47 53 -80 31 -94 -11 -6
-69 43 -69 59 0 5 -16 28 -37 50 -34 38 -36 39 -29 13 9 -38 -9 -25 -34 25
-11 21 -23 39 -25 39 -3 0 2 -14 10 -31 9 -17 14 -38 10 -47 -5 -13 -11 -9
-26 20 -11 21 -20 49 -21 63 -1 13 -6 21 -10 17 -4 -4 -3 -25 3 -46 12 -42 0
-60 -33 -50 -9 2 -29 -6 -44 -20 l-29 -24 -28 20 c-22 16 -46 20 -113 21 -80
2 -87 0 -106 -23 -18 -22 -20 -35 -16 -118 7 -120 12 -126 121 -130 77 -4 85
-2 114 22 30 25 30 25 48 6 10 -11 28 -20 40 -20 23 0 55 28 55 48 0 17 32 2
53 -24 23 -29 51 -38 77 -24 15 8 29 8 54 -1 30 -11 37 -10 64 10 17 12 33 18
36 13 3 -5 21 -7 40 -6 21 2 39 -3 46 -11 16 -19 35 -19 66 2 23 15 28 15 60
0 52 -25 173 -23 207 3 30 24 57 26 57 5 0 -10 10 -15 29 -15 17 0 33 -5 37
-11 4 -8 9 -7 15 2 7 11 9 11 9 1 0 -10 4 -10 20 0 17 11 22 10 30 -2 6 -9 13
-11 18 -5 4 6 21 20 38 32 l31 21 27 -26 c21 -22 30 -25 44 -16 15 10 35 39
45 69 2 6 25 -9 50 -32 53 -49 74 -53 106 -19 20 21 22 32 19 121 -3 94 -4 99
-30 118 l-28 21 -25 -24 c-14 -13 -25 -32 -25 -42 0 -25 -5 -23 -56 18 -39 33
-48 36 -84 30 -38 -6 -40 -5 -40 19 0 21 141 244 190 300 10 11 26 34 37 51
31 54 117 178 141 204 12 14 22 28 22 32 0 4 19 33 43 64 23 31 41 65 39 75
-2 9 2 20 8 24 15 9 12 -162 -4 -270 -20 -124 -49 -212 -112 -334 -54 -107
-57 -131 -14 -131 10 0 23 -7 30 -15 22 -26 38 -17 72 43 138 237 197 541 154
792 -22 129 -71 277 -107 322 -16 20 -29 40 -29 43 0 4 16 33 36 65 57 92 34
91 -32 -1 -139 -193 -206 -299 -197 -312 5 -6 46 -58 91 -114 45 -56 82 -105
82 -108 0 -7 -116 -178 -305 -450 -61 -88 -120 -176 -131 -195 -10 -19 -23
-38 -27 -41 -5 -3 -6 -27 -2 -53 5 -31 4 -46 -4 -46 -6 0 -11 5 -11 11 0 5 -4
8 -9 4 -5 -3 -12 21 -16 52 -11 97 -15 112 -51 159 -33 43 -34 45 -12 42 27
-4 87 -97 89 -138 1 -18 3 -20 6 -6 3 10 -3 38 -12 62 -16 42 -16 45 4 73 26
36 26 41 2 41 -11 0 -23 5 -26 10 -4 7 7 10 31 8 22 -1 39 3 41 9 3 7 29 46
59 88 30 41 54 78 54 80 0 3 -18 5 -39 5 -39 0 -41 -2 -115 -109 l-76 -109
-41 3 c-22 1 -48 10 -58 20 -15 16 -14 17 9 10 20 -6 23 -5 13 6 -11 11 -24
14 -67 18 -6 1 -5 6 1 12 15 15 64 -2 110 -37 18 -14 33 -21 33 -17 0 4 -13
17 -29 28 l-29 19 114 169 c63 93 113 171 111 173 -5 5 -98 -125 -171 -239
-56 -87 -57 -87 -79 -70 -12 9 -56 63 -97 119 -72 98 -77 103 -112 103 -33 1
-41 -4 -65 -40 -15 -23 -29 -36 -31 -30 -2 6 -21 21 -43 33 -21 12 -39 27 -39
33 0 18 121 185 146 202 13 8 46 17 72 20 42 4 45 3 29 -10 -16 -13 -14 -15
23 -21 43 -7 51 -19 23 -32 -14 -6 -10 -9 17 -13 37 -6 41 -17 24 -69 -7 -24
-7 -24 25 -8 17 9 31 15 31 13 0 -3 -7 -24 -15 -47 -8 -23 -15 -44 -15 -46 0
-2 20 10 45 27 25 17 42 35 39 41 -4 6 -10 6 -17 -1 -18 -18 -29 -13 -17 8 13
25 0 33 -37 26 -27 -5 -27 -5 -5 6 12 7 22 15 22 19 0 12 -63 106 -114 169
-64 79 -116 110 -203 121 -38 5 -83 15 -102 23 l-35 15 34 17 c30 15 40 16 89
5 43 -10 51 -14 36 -20 -11 -4 -23 -6 -27 -3 -5 2 -8 -1 -8 -6 0 -15 12 -14
71 9 41 17 54 18 60 8 4 -7 2 -19 -4 -27 -10 -12 -9 -13 11 -2 18 10 22 9 22
-3 0 -7 7 -17 16 -20 14 -5 15 -4 4 9 -7 9 -10 18 -7 21 6 6 47 -54 47 -70 0
-5 -7 -3 -15 4 -11 9 -15 9 -15 1 0 -7 -4 -9 -10 -6 -16 10 -11 -1 7 -16 13
-11 15 -11 9 -1 -11 19 25 12 42 -8 7 -8 1 8 -13 37 -30 62 -29 58 -7 60 9 1
33 3 52 6 19 2 26 2 15 0 -44 -11 -47 -70 -6 -135 22 -35 36 -46 61 -50 29 -4
31 -3 25 19 -4 18 -2 23 6 17 9 -5 10 1 5 20 -7 28 7 56 27 56 7 0 7 -4 -1
-12 -19 -19 -14 -30 9 -18 26 14 35 7 14 -10 -8 -7 -15 -17 -15 -23 0 -5 8 -2
19 7 17 15 19 15 25 1 3 -9 1 -25 -4 -36 -7 -13 -7 -19 0 -19 5 0 10 4 10 10
0 5 9 14 19 20 18 9 19 8 11 -20 -5 -18 -5 -30 1 -30 8 0 13 14 10 32 0 4 6 5
14 1 11 -3 13 -12 9 -27 -5 -17 -4 -19 7 -8 22 21 27 14 22 -28 -7 -50 1 -51
26 -2 16 30 21 34 26 19 6 -14 10 -15 21 -6 20 17 19 -25 -2 -45 -14 -15 -14
-16 4 -16 28 0 100 84 112 131 6 22 14 47 17 56 4 11 2 14 -5 9 -7 -4 -12 -1
-12 9 0 9 4 14 8 11 4 -2 8 13 7 35 0 21 -3 39 -7 39 -5 0 -8 -4 -8 -10 0 -5
-7 -10 -16 -10 -8 0 -13 4 -10 9 4 5 2 20 -3 33 -6 12 -10 17 -10 9 -1 -11 -4
-10 -14 3 -8 11 -20 16 -28 13 -11 -4 -10 -6 3 -6 9 -1 20 -10 23 -21 4 -11
10 -18 15 -15 5 3 8 -4 7 -15 -2 -28 -21 -25 -35 5 -7 14 -19 28 -27 31 -8 4
-12 11 -8 18 5 7 2 7 -8 -1 -12 -10 -23 -5 -62 28 -39 34 -45 44 -37 59 17 31
12 45 -9 26 -18 -16 -20 -16 -35 14 -13 27 -13 31 -1 26 20 -7 19 4 -2 20 -10
7 -13 13 -8 14 15 0 30 -13 43 -35 10 -17 11 -18 12 -3 0 10 -18 29 -39 42
-22 14 -42 30 -46 36 -10 16 -25 12 -25 -7 0 -11 -8 -6 -25 17 -14 19 -25 47
-25 62 0 16 -7 45 -15 65 -18 43 -18 46 -2 37 8 -5 8 -3 -2 9 -7 9 -17 14 -22
11 -5 -3 -13 5 -18 18 -8 18 -10 7 -10 -46 -1 -60 -3 -67 -16 -56 -9 7 -17 11
-18 9 -2 -2 40 -44 94 -94 53 -49 97 -96 98 -102 1 -7 5 -13 10 -13 5 0 12
-11 15 -25 4 -14 18 -35 31 -47 19 -16 22 -24 13 -31 -9 -6 -8 -7 4 -4 15 5
47 -19 46 -36 0 -5 4 -12 8 -15 4 -4 4 -1 0 6 -4 6 -2 12 4 12 7 0 9 -8 5 -20
-4 -12 -1 -27 5 -35 6 -8 9 -18 6 -23 -8 -13 14 -73 24 -67 5 3 12 0 15 -6 4
-5 13 -8 21 -5 8 3 14 1 14 -4 0 -6 9 -10 19 -10 18 0 31 -18 31 -42 0 -6 -13
-8 -30 -6 -16 3 -30 1 -30 -4 0 -4 9 -8 20 -8 11 0 20 -4 20 -9 0 -4 -18 -5
-40 -1 -32 6 -43 4 -51 -9 -9 -14 -10 -14 -6 0 6 18 -23 22 -36 5 -6 -7 -7 -5
-4 6 4 11 -3 20 -21 27 -15 7 -52 34 -82 60 -30 27 -58 47 -61 45 -3 -2 -11 8
-17 21 -16 35 -60 54 -144 61 -40 4 -84 13 -96 21 -13 8 -54 16 -90 18 l-67 4
43 -15 c23 -9 42 -20 42 -25 0 -12 -15 -12 -38 0 -9 5 -52 19 -95 31 l-77 22
-34 -21 c-18 -12 -37 -21 -41 -21 -17 0 22 33 64 54 l45 23 -36 5 c-20 2 -36
1 -36 -2 2 -20 -5 -26 -29 -23 -16 2 -46 -2 -67 -10 -35 -12 -44 -12 -70 2
-17 8 -68 17 -113 19 -73 4 -86 2 -127 -21 -25 -14 -46 -22 -46 -18 0 3 24 30
53 58 71 69 161 125 211 130 39 4 163 -9 216 -23 14 -3 5 4 -20 17 -38 20 -51
35 -82 99 -21 41 -45 84 -53 95 -9 11 -26 36 -38 55 -12 19 -45 50 -72 69 -50
33 -50 33 -15 26 19 -4 62 -18 95 -32 95 -39 91 -37 79 -24 -23 25 -177 71
-234 70 l-55 -1 40 -14 c42 -15 115 -69 115 -84 0 -5 -12 -5 -27 1 -16 6 -73
21 -127 33 l-99 23 62 37 c34 21 96 55 139 76 42 21 71 39 64 39 -21 1 -178
-80 -230 -120 -47 -35 -53 -37 -103 -31 l-53 7 55 49 c68 61 145 114 228 156
l64 32 19 -23 c71 -88 131 -172 152 -210 54 -97 87 -175 82 -192 -4 -16 15
-28 109 -73 62 -29 117 -58 121 -65 4 -8 3 -9 -4 -5 -7 4 -12 3 -12 -3 0 -10
61 -31 92 -31 17 0 34 -17 25 -26 -2 -2 -17 0 -33 6 -27 9 -28 9 -10 -5 11 -8
24 -15 29 -15 23 0 76 -33 70 -44 -3 -6 -3 -8 2 -4 4 4 17 2 28 -3 16 -9 17
-13 6 -20 -9 -6 3 -9 36 -7 34 2 50 -1 50 -9 0 -7 10 -20 23 -28 26 -19 29
-11 6 13 -15 15 -15 16 0 22 27 9 -75 90 -115 90 -35 0 -129 67 -111 79 6 3
12 24 15 46 3 34 4 33 3 -9 0 -33 5 -51 13 -54 11 -4 12 7 6 53 -9 75 -15 91
-26 73 -6 -9 -9 -4 -9 15 0 37 -14 64 -58 110 -39 40 -52 46 -52 22 0 -8 -2
-15 -5 -15 -3 0 -71 55 -151 123 l-146 122 38 7 c22 3 77 7 124 9 l85 2 22
-54 c12 -30 28 -79 34 -111 10 -49 17 -60 53 -86 22 -17 61 -49 85 -71 29 -27
47 -37 52 -30 4 7 12 8 20 3 11 -6 12 -5 2 7 -6 8 -25 49 -42 92 -32 79 -86
173 -124 214 -11 13 -17 26 -14 30 4 3 39 0 79 -7 61 -10 76 -18 106 -49 20
-20 29 -28 22 -18 -24 32 -2 29 81 -13 104 -52 171 -99 162 -114 -4 -6 1 -5
10 3 9 7 14 17 12 22 -12 18 -159 103 -237 135 -88 37 -184 64 -233 64 -21 0
-42 12 -74 43 -36 33 -34 30 10 -18 67 -73 139 -180 174 -258 l25 -58 -26 3
c-23 2 -30 11 -45 55 -35 104 -92 195 -176 283 -45 48 -80 90 -76 94 3 3 4 6
2 6 -3 0 -10 -5 -15 -10z m61 -87 l37 -48 -94 -6 c-51 -3 -107 -10 -125 -14
-27 -6 -38 -2 -72 26 -24 18 -38 36 -33 41 11 11 175 46 219 47 27 1 38 -7 68
-46z m-83 -311 c60 -63 134 -170 124 -180 -4 -3 -32 3 -64 15 l-57 20 -11 54
c-13 60 -31 105 -52 132 -9 9 -11 17 -5 17 5 0 35 -26 65 -58z m368 -63 c20
-37 4 -43 -31 -11 l-34 31 27 1 c18 0 31 -7 38 -21z m-727 -47 c11 -12 16 -26
12 -31 -8 -15 -25 -14 -25 0 0 7 -15 27 -34 45 -19 18 -31 35 -29 38 7 6 51
-24 76 -52z m209 -62 c24 -7 43 -22 57 -43 20 -31 20 -32 1 -39 -13 -5 -41 5
-85 27 -37 19 -79 35 -93 35 -21 -1 -16 -5 23 -19 28 -10 57 -20 65 -23 10 -4
7 -8 -12 -13 -19 -5 -34 -1 -55 14 -16 12 -57 27 -93 35 l-65 13 45 11 c60 13
166 14 212 2z m-313 -129 c51 -21 61 -47 26 -63 -14 -6 -22 -15 -19 -19 7 -11
-33 -49 -51 -49 -13 0 -14 4 -5 20 6 11 15 20 21 20 6 0 6 7 -1 20 -13 24 -60
50 -91 50 -21 0 -22 1 -4 20 22 25 65 25 124 1z m1621 -98 c85 -204 111 -441
71 -649 -11 -61 -30 -139 -42 -174 -26 -79 -126 -280 -139 -280 -16 0 -13 10
40 115 92 181 130 344 130 549 0 67 -5 149 -11 182 -14 83 -57 220 -85 275
-21 43 -22 59 -3 59 4 0 22 -35 39 -77z m-55 -5 c30 -65 32 -74 18 -83 -9 -5
-28 -20 -43 -32 -33 -27 -36 -28 -44 -7 -4 10 8 32 30 60 20 24 32 44 26 44
-11 0 -42 71 -35 83 9 14 15 6 48 -65z m-654 21 c19 -19 18 -19 -8 -19 -17 1
-34 9 -45 24 -16 23 -16 23 9 18 14 -3 34 -13 44 -23z m603 -41 c-3 -13 -16
-36 -27 -52 -19 -26 -19 -31 -6 -55 11 -19 23 -26 47 -26 36 0 46 -17 57 -95
4 -25 9 -53 11 -62 4 -13 0 -18 -13 -18 -10 1 -41 31 -73 72 -30 39 -63 80
-73 91 -23 27 -16 57 30 119 37 51 59 63 47 26z m-1020 -47 c10 -16 -29 -39
-81 -46 -29 -4 -53 -11 -53 -17 0 -6 9 -8 20 -5 11 3 23 1 26 -4 3 -5 9 -7 14
-4 5 3 11 -3 13 -12 4 -15 6 -15 12 5 8 25 27 29 44 8 8 -10 9 -16 1 -21 -25
-15 -7 -24 20 -10 17 9 39 14 48 11 9 -2 29 -7 45 -10 28 -7 35 -24 16 -43 -8
-8 -23 -6 -55 9 -41 18 -47 18 -76 3 -22 -11 -34 -12 -38 -4 -5 7 -9 5 -13 -6
-4 -9 -3 -13 3 -10 6 3 10 1 10 -5 0 -6 6 -8 13 -4 7 4 9 3 4 -2 -8 -9 -13
-10 -41 -13 -7 0 -16 -15 -20 -32 -7 -37 4 -62 15 -33 6 15 8 11 8 -15 1 -27
-2 -31 -13 -22 -23 20 -126 158 -126 170 0 14 79 101 92 101 5 0 6 -4 3 -10
-10 -16 8 -11 35 10 26 20 65 26 74 11z m757 -52 c24 -26 34 -30 58 -24 l30 6
-2 -45 c-1 -25 -5 -46 -9 -46 -5 0 -8 4 -8 8 0 4 -10 8 -21 9 -12 1 -28 11
-36 22 -17 26 -30 27 -36 4 -3 -10 -4 1 -2 24 2 24 0 45 -6 48 -10 7 -13 25
-3 25 3 0 19 -14 35 -31z m362 -50 c46 -169 43 -395 -8 -576 -26 -93 -131
-314 -152 -321 -21 -6 -15 13 22 77 46 79 90 190 115 292 40 162 37 410 -6
533 -17 48 -18 69 -1 64 6 -3 20 -34 30 -69z m-692 30 c15 -7 18 -16 13 -32
-5 -17 -2 -16 19 8 l26 30 -3 -30 c-2 -16 -8 -30 -14 -30 -6 0 -14 -4 -19 -9
-5 -5 -3 -6 5 -2 6 4 12 2 12 -3 0 -15 -27 -14 -33 2 -10 24 -7 -21 3 -47 13
-36 -11 -35 -39 0 -25 31 -27 48 -6 40 19 -7 20 14 1 39 -14 20 -11 45 6 45 5
0 18 -5 29 -11z m-780 -37 c-6 -11 -8 -22 -4 -25 3 -3 -8 -23 -24 -44 -53 -67
-92 -138 -107 -194 -10 -40 -16 -49 -21 -36 -11 26 0 167 15 200 13 26 139
132 147 123 3 -2 0 -13 -6 -24z m626 -67 l58 -55 -48 20 c-57 25 -208 40 -169
18 17 -11 20 -16 10 -26 -7 -7 -17 -12 -23 -12 -17 0 -34 35 -25 51 6 8 4 17
-3 22 -7 5 -4 6 8 2 11 -4 32 -7 47 -6 15 1 45 -3 68 -8 52 -12 42 5 -12 20
-31 8 -38 13 -27 20 30 19 59 8 116 -46z m-477 36 c0 -6 17 -30 38 -55 81 -99
82 -101 64 -114 -14 -10 -13 -11 5 -2 29 14 30 13 36 -12 2 -13 8 -31 12 -40
10 -25 -6 -22 -48 6 -19 13 -37 22 -40 20 -2 -3 -28 11 -57 31 -29 20 -55 34
-57 31 -11 -11 146 -106 177 -106 6 0 8 -5 4 -12 -4 -7 -3 -8 4 -4 7 4 20 2
29 -3 10 -6 14 -11 10 -11 -4 0 -3 -9 3 -20 6 -11 16 -17 22 -14 7 5 9 2 5 -9
-7 -19 8 -33 18 -17 4 6 -6 27 -22 48 -46 59 -67 158 -42 189 9 11 9 17 0 26
-10 9 -11 8 -6 -8 6 -18 5 -18 -5 -2 -6 9 -8 22 -4 28 4 8 9 7 15 -2 7 -11 11
-10 23 6 8 11 10 22 5 23 -11 4 -2 22 11 22 4 0 7 -11 6 -24 -3 -22 -1 -23 27
-15 17 5 33 7 35 4 2 -2 -11 -23 -29 -46 -33 -41 -33 -42 -9 -36 73 21 84 21
76 1 -5 -10 -11 -28 -14 -39 -5 -20 -4 -20 15 1 11 11 24 30 27 42 8 23 53 52
81 52 20 0 141 -55 148 -67 3 -5 -20 -1 -52 10 -52 17 -65 18 -117 6 -45 -9
-53 -14 -36 -18 22 -6 21 -7 -19 -56 -54 -64 -105 -146 -101 -162 4 -17 2 -17
-55 8 -67 28 -86 47 -71 68 11 14 11 14 -7 0 -11 -9 -27 -15 -35 -13 -8 2 0
-3 19 -12 61 -28 25 -24 -59 6 -46 16 -85 30 -88 30 -12 0 7 189 23 228 16 38
35 56 35 33z m105 -331 c17 -6 30 -11 30 -10 0 1 17 -6 37 -14 21 -9 49 -16
64 -16 27 0 84 -34 84 -51 0 -34 -95 -12 -147 34 -28 25 -34 27 -25 10 7 -12
17 -24 24 -27 26 -12 -66 6 -129 25 -56 18 -66 25 -79 54 -25 61 -30 61 141
-5z m-198 8 c18 -22 67 -128 58 -128 -3 0 -24 10 -48 21 -44 22 -44 22 -44 75
0 30 3 54 7 54 3 0 16 -10 27 -22z m513 -47 c0 -18 -46 -64 -59 -60 -9 3 -5
14 14 37 26 32 45 41 45 23z m37 3 c-3 -3 5 -18 19 -33 14 -14 38 -47 54 -72
27 -45 27 -46 7 -41 -12 3 -27 9 -33 14 -6 4 -34 21 -62 36 l-51 28 25 37 c13
20 30 37 36 37 6 0 9 -3 5 -6z m-362 -41 c47 -14 92 -35 110 -51 l30 -27 -25
29 c-22 26 -23 28 -5 22 11 -4 43 -11 70 -15 46 -6 122 -48 110 -59 -6 -6
-140 12 -260 34 -94 18 -119 32 -134 74 -10 29 -9 31 7 25 9 -5 53 -19 97 -32z
m-63 -95 c38 -23 72 -37 79 -32 8 4 9 3 5 -4 -4 -6 5 -19 19 -28 37 -24 30
-39 -8 -15 -33 20 -147 55 -154 47 -3 -2 3 -18 12 -36 27 -52 11 -45 -29 12
-36 53 -45 75 -26 63 16 -10 11 1 -7 16 -11 10 -14 10 -9 2 4 -7 5 -13 2 -13
-6 0 -36 55 -36 65 0 7 66 -27 152 -77z m453 2 c12 -11 28 -20 36 -20 15 0
119 -46 119 -53 0 -13 -92 3 -133 24 -39 19 -44 25 -30 31 12 4 5 7 -20 7 -27
1 -53 11 -83 33 -24 17 -44 35 -44 40 0 12 132 -40 155 -62z m-295 0 c36 -6
106 -15 156 -19 93 -9 146 -28 212 -78 18 -13 38 -21 45 -17 6 4 9 3 4 -1 -9
-10 32 -57 44 -49 25 15 101 -193 84 -232 -7 -17 -8 -17 -15 6 l-8 25 -1 -25
c-1 -21 -3 -22 -15 -10 -13 14 -39 100 -30 100 2 0 13 -15 24 -32 30 -49 24
-12 -6 41 -68 118 -175 182 -329 197 -177 16 -234 31 -220 55 3 4 -6 16 -20
25 -29 19 -34 38 -7 30 9 -3 46 -10 82 -16z m665 -40 c-29 -42 -46 -49 -23 -9
19 34 41 59 46 54 3 -3 -8 -23 -23 -45z m-341 -118 c64 -35 123 -103 141 -165
22 -74 20 -92 -10 -92 -19 0 -26 6 -31 30 -13 60 -68 146 -132 207 -69 64 -61
69 32 20z m-105 -164 c36 -33 16 -32 -33 2 -25 17 -46 33 -46 35 0 9 59 -18
79 -37z m-234 -151 c17 -33 44 -85 62 -114 l32 -53 -29 0 c-16 0 -30 7 -34 15
-4 11 -22 15 -71 15 -49 0 -67 -4 -71 -15 -6 -14 -54 -22 -54 -9 0 11 122 224
128 223 4 0 21 -28 37 -62z m103 29 c9 -9 12 -16 7 -16 -6 0 -9 -18 -9 -40 2
-33 -1 -40 -17 -40 -10 0 -19 5 -19 11 0 6 -8 23 -19 37 -10 15 -21 37 -25 49
-7 20 -4 22 29 19 20 -2 44 -11 53 -20z m680 -51 c40 -41 75 -75 76 -75 2 0 1
34 -2 75 l-5 75 27 0 26 0 0 -110 c0 -101 -1 -110 -19 -110 -11 0 -50 33 -90
76 l-71 76 0 -76 c0 -72 -1 -76 -22 -76 -23 0 -23 2 -21 107 2 60 3 109 3 111
0 1 5 2 12 2 7 0 45 -34 86 -75z m-1280 46 c18 -16 22 -29 22 -82 0 -51 -4
-67 -22 -86 -19 -21 -31 -23 -107 -23 l-86 0 0 105 0 105 85 0 c68 -1 89 -4
108 -19z m270 7 c7 -7 12 -33 12 -60 0 -38 -4 -50 -21 -59 -21 -11 -21 -11 12
-45 l33 -34 -35 0 c-28 1 -39 7 -61 40 -22 32 -34 40 -58 40 -28 0 -30 -2 -30
-40 0 -36 -2 -40 -25 -40 l-25 0 0 105 0 105 93 0 c59 0 97 -4 105 -12z m557
-8 c-15 -16 -31 -20 -85 -20 -53 0 -69 -4 -74 -16 -9 -23 -7 -77 3 -93 11 -17
123 -23 133 -7 14 21 8 26 -27 26 -30 0 -35 3 -35 23 0 20 5 22 55 22 l55 0 0
-62 0 -63 -92 0 c-85 0 -95 2 -115 24 -18 19 -23 35 -23 80 0 50 4 60 28 81
24 22 37 24 111 25 83 0 84 0 66 -20z m270 -7 c19 -22 24 -39 25 -84 0 -75
-17 -90 -106 -93 -58 -2 -71 1 -95 22 -25 20 -29 31 -29 74 0 37 6 57 23 78
20 27 27 29 90 29 62 1 70 -1 92 -26z m-755 -58 c7 -9 10 -18 7 -21 -10 -11
-37 5 -37 21 0 19 14 19 30 0z m-13 -55 c4 -24 -1 -25 -22 -4 -13 13 -14 19
-4 25 16 10 22 5 26 -21z"/>
<path d="M1330 778 c-7 -18 -15 -36 -18 -40 -2 -5 17 -8 42 -8 l47 0 -23 40
c-13 22 -25 40 -28 40 -3 0 -12 -15 -20 -32z"/>
<path d="M750 770 l0 -61 63 3 62 3 3 43 c4 59 -9 72 -74 72 l-54 0 0 -60z
m90 -5 c0 -20 -5 -25 -25 -25 -20 0 -25 5 -25 25 0 20 5 25 25 25 20 0 25 -5
25 -25z"/>
<path d="M1020 805 c0 -24 2 -25 61 -25 57 0 60 1 57 23 -3 19 -10 22 -60 25
-56 3 -58 2 -58 -23z"/>
<path d="M1836 814 c-9 -22 -7 -77 3 -92 5 -9 27 -12 72 -10 l64 3 3 43 c4 60
-9 72 -78 72 -44 0 -59 -4 -64 -16z m81 -39 c1 -19 -4 -38 -9 -41 -6 -4 -8 2
-3 17 l6 24 -19 -24 c-19 -23 -19 -23 -24 -3 -6 23 8 46 32 55 8 3 15 6 16 6
0 1 0 -15 1 -34z"/>
<path d="M1453 2793 c15 -17 34 -21 125 -26 131 -7 240 -34 350 -87 87 -41
214 -124 250 -163 l21 -22 -51 -66 -51 -67 -51 52 c-49 50 -178 127 -191 114
-4 -3 33 -57 81 -120 94 -120 325 -408 329 -408 1 0 23 31 50 69 28 42 58 74
74 79 36 13 174 116 161 120 -12 4 -130 -64 -142 -82 -4 -6 -17 -2 -35 9 -15
9 -22 12 -15 4 15 -16 16 -39 1 -39 -13 0 -44 -34 -64 -72 -9 -16 -24 -28 -34
-28 -16 0 -81 69 -81 86 0 4 -8 14 -18 23 -32 30 -202 252 -202 265 0 15 22 3
53 -28 19 -18 46 -42 62 -52 l28 -18 39 44 c22 25 48 63 58 85 l19 40 -45 46
c-48 49 -167 124 -250 159 -27 11 -56 24 -64 28 -14 8 -107 33 -175 47 -16 4
-70 7 -120 8 -49 1 -99 6 -110 11 -19 9 -19 9 -2 -11z"/>
<path d="M2448 2455 c-21 -19 -33 -35 -27 -35 10 0 35 22 58 53 20 26 10 20
-31 -18z"/>
<path d="M1233 2367 c6 -12 28 -33 49 -47 28 -17 46 -41 69 -91 21 -45 36 -66
45 -62 11 4 34 -31 34 -51 0 -1 -16 -3 -37 -4 -49 -4 -58 -11 -34 -29 30 -20
26 -28 -19 -43 -27 -9 -36 -16 -28 -21 7 -5 19 -2 29 7 22 20 63 17 90 -6 24
-20 24 -20 5 -35 -25 -19 -14 -19 47 0 49 15 82 11 70 -8 -4 -7 0 -8 11 -4 10
4 22 7 27 7 20 0 -2 18 -28 23 -33 7 -206 87 -201 93 2 2 20 0 39 -5 19 -5 54
-11 78 -14 l44 -5 -36 29 c-41 34 -142 169 -127 169 13 0 -1 29 -43 85 -28 39
-30 34 -9 -25 3 -8 -15 2 -40 22 -37 31 -44 33 -35 15z"/>
<path d="M691 2273 c-49 -65 -137 -221 -129 -228 2 -2 22 33 46 78 23 45 59
104 80 131 59 78 65 86 59 86 -3 0 -28 -30 -56 -67z"/>
<path d="M783 2305 c-40 -34 -113 -125 -113 -140 0 -5 14 12 32 36 17 24 54
65 80 91 58 57 58 62 1 13z"/>
<path d="M1713 2304 c21 -40 135 -146 149 -138 6 4 8 2 4 -4 -3 -6 -2 -13 4
-17 15 -9 13 -38 -2 -29 -7 4 -5 -2 6 -14 27 -31 16 -47 -17 -22 -15 12 -35
22 -46 23 -12 1 -17 6 -13 17 5 13 3 13 -11 1 -15 -12 -18 -10 -27 14 -17 45
-7 48 39 15 23 -17 45 -29 48 -26 7 7 -12 38 -23 37 -24 -2 -44 12 -44 32 0
16 -3 18 -9 8 -6 -10 -11 -6 -19 15 -9 25 -11 20 -11 -39 -1 -73 2 -77 69 -91
25 -5 42 -19 131 -100 22 -21 43 -35 47 -31 3 3 0 10 -8 16 -13 8 -13 10 -1
18 8 5 20 7 28 4 7 -3 13 0 13 6 0 6 -6 11 -14 11 -8 0 -17 8 -20 18 -3 10
-16 18 -28 19 -11 1 -25 8 -29 15 -7 10 -9 9 -9 -4 0 -10 -7 -18 -15 -18 -11
0 -12 5 -6 23 6 14 5 30 -1 41 -18 33 2 29 37 -7 19 -19 37 -32 40 -27 3 5 -4
14 -15 20 -11 6 -18 14 -16 19 3 4 -11 15 -29 25 -19 11 -32 23 -29 27 3 5
-12 15 -33 24 -30 13 -35 18 -23 25 12 8 11 10 -5 10 -25 0 -60 36 -42 44 8 3
7 5 -3 5 -8 1 -29 16 -48 34 l-34 32 15 -31z"/>
<path d="M1915 2280 c14 -30 25 -64 25 -74 0 -11 3 -16 6 -13 10 10 -15 89
-37 117 -15 20 -14 14 6 -30z"/>
<path d="M1416 2208 c7 -17 108 -100 137 -113 12 -5 24 -12 27 -15 6 -7 80
-50 86 -50 15 0 -1 17 -26 28 -17 8 -28 17 -25 22 3 4 -16 21 -42 36 -27 15
-74 45 -105 66 -32 21 -55 33 -52 26z"/>
<path d="M1185 2121 l-40 -18 50 4 c44 4 54 1 89 -26 21 -17 43 -31 49 -31 20
0 -36 50 -70 62 -22 8 -29 15 -20 20 24 15 -17 8 -58 -11z"/>
<path d="M1195 2071 c28 -5 59 -12 70 -16 16 -7 18 -5 8 5 -7 7 -38 15 -70 16
l-58 3 50 -8z"/>
<path d="M1585 2029 c25 -23 42 -45 39 -50 -3 -5 9 -6 26 -3 19 4 30 2 30 -4
0 -20 58 -42 109 -42 70 0 90 -10 173 -86 40 -37 88 -77 108 -90 42 -27 90
-41 90 -25 0 6 -7 8 -15 5 -8 -4 -15 -1 -15 5 0 6 -7 8 -15 5 -8 -4 -15 -1
-15 6 0 6 -4 8 -10 5 -5 -3 -10 -1 -10 4 0 6 -4 11 -10 11 -15 0 -49 37 -42
46 4 4 1 3 -7 -1 -11 -6 -13 -4 -8 8 4 11 2 14 -7 11 -8 -3 -16 4 -19 15 -5
22 7 29 18 11 3 -5 14 -10 23 -9 14 0 14 2 2 6 -33 12 -60 46 -54 67 6 21 6
21 -9 2 -13 -17 -13 -22 0 -34 10 -10 11 -18 4 -25 -8 -8 -15 -6 -23 5 -35 42
-88 70 -135 70 -47 0 -87 15 -131 49 -16 12 -19 19 -10 23 7 3 3 3 -9 1 -12
-3 -24 -1 -28 5 -6 10 -78 50 -89 50 -3 0 15 -19 39 -41z"/>
<path d="M1076 2029 c-56 -13 -60 -23 -7 -15 24 4 79 2 122 -5 89 -13 123 -8
64 10 -58 17 -134 22 -179 10z"/>
<path d="M2004 1968 c-4 -7 -3 -10 1 -5 5 4 16 1 24 -7 11 -10 21 -12 31 -6
13 8 12 10 -2 10 -10 0 -18 5 -18 10 0 14 -27 12 -36 -2z"/>
<path d="M2005 1923 c17 -25 17 -26 -1 -19 -17 7 -17 6 1 -14 10 -11 23 -20
29 -19 6 0 6 3 -1 6 -22 8 -14 24 10 20 12 -2 17 -2 10 0 -6 2 -19 15 -27 29
-9 13 -21 24 -27 24 -7 0 -4 -11 6 -27z"/>
<path d="M2045 1931 c-3 -5 -1 -12 5 -16 5 -3 10 -3 10 2 0 4 4 4 8 -2 4 -5
17 -18 29 -28 21 -18 22 -18 16 2 -6 24 -59 56 -68 42z"/>
<path d="M1773 1759 c-7 -7 -8 -16 -2 -23 44 -52 79 -103 79 -114 0 -7 4 -11
9 -8 5 3 12 -5 15 -19 4 -14 10 -25 15 -25 14 0 7 28 -12 50 -14 16 -14 21 -2
27 11 7 11 11 -2 28 -15 19 -15 19 -8 -5 l7 -25 -25 24 c-15 13 -24 27 -22 31
3 4 -6 19 -19 33 -13 14 -21 28 -18 31 3 3 3 6 1 6 -3 0 -10 -5 -16 -11z"/>
<path d="M1913 1717 c4 -10 1 -17 -5 -17 -9 0 -9 -3 0 -12 15 -15 16 -48 2
-48 -7 0 -7 -6 -1 -17 13 -23 65 -83 55 -63 -6 12 -5 13 7 3 13 -11 18 -7 34
25 10 20 20 46 22 57 3 16 -2 14 -22 -10 -13 -16 -23 -35 -20 -42 2 -7 -5 -11
-16 -10 -14 1 -19 8 -17 22 2 14 -2 20 -14 19 -27 -2 -22 3 20 25 30 16 33 20
15 21 -17 0 -21 4 -17 18 5 14 4 14 -4 2 -6 -8 -9 -17 -6 -21 2 -4 0 -10 -6
-14 -6 -4 -10 8 -10 29 0 19 -5 38 -12 42 -8 5 -9 2 -5 -9z"/>
<path d="M2274 1529 c-109 -163 -112 -168 -92 -152 23 19 192 272 186 279 -3
3 -46 -54 -94 -127z"/>
<path d="M352 1545 c-1 -60 3 -139 8 -175 23 -142 111 -360 176 -435 l26 -30
-22 40 c-73 130 -91 168 -119 247 -39 113 -52 186 -61 338 l-7 125 -1 -110z"/>
<path d="M966 1546 c-19 -30 -36 -99 -35 -146 1 -26 4 -17 13 30 7 36 20 82
29 103 18 43 16 48 -7 13z"/>
<path d="M2017 1551 c-10 -4 -18 -10 -18 -14 2 -20 0 -27 -9 -27 -5 0 -7 7 -4
15 6 16 -5 18 -44 7 -22 -7 -22 -7 8 -35 21 -20 30 -24 30 -14 0 9 8 18 18 21
9 3 22 17 29 31 6 14 10 25 10 24 -1 0 -10 -4 -20 -8z"/>
<path d="M1902 1454 l-11 -35 24 15 c22 15 25 14 34 -2 9 -14 10 -12 11 14 0
29 -13 44 -39 44 -4 0 -13 -16 -19 -36z"/>
<path d="M860 1317 c0 -62 23 -162 41 -182 5 -5 9 6 9 29 0 20 -4 35 -9 32
-13 -8 -21 31 -21 106 0 37 -4 70 -10 73 -6 4 -10 -18 -10 -58z"/>
<path d="M1020 1255 c0 -15 50 -75 73 -86 14 -7 5 7 -23 37 -25 27 -46 51 -47
53 -2 2 -3 1 -3 -4z"/>
<path d="M930 1199 c0 -8 11 -38 25 -65 14 -27 28 -69 32 -94 9 -70 23 -82 16
-15 -4 39 -17 83 -39 125 -18 36 -33 58 -34 49z"/>
<path d="M2228 1101 c-7 -12 -22 -21 -34 -21 -11 0 -31 -12 -45 -27 l-24 -28
27 24 c15 13 33 21 41 18 16 -6 65 39 54 49 -3 3 -12 -3 -19 -15z"/>
<path d="M2300 1068 c53 -58 51 -73 -3 -20 l-43 42 -30 -31 -29 -31 33 16 c33
17 33 17 68 -14 33 -28 54 -32 54 -9 0 12 -70 89 -81 89 -4 0 10 -19 31 -42z"/>
<path d="M1605 1051 c21 -22 41 -41 43 -41 10 0 -43 62 -61 71 -14 7 -8 -4 18
-30z"/>
<path d="M828 603 c-22 -24 -23 -76 -2 -97 20 -21 107 -22 124 -1 10 13 14 13
26 0 12 -11 20 -12 39 -3 18 8 28 8 39 -1 16 -14 235 -14 257 -1 7 5 22 4 33
-2 16 -9 23 -7 37 11 19 23 15 55 -9 83 -13 15 -33 18 -131 18 -64 0 -129 -1
-146 -1 -85 -4 -136 -2 -190 5 -53 7 -62 6 -77 -11z m109 -18 c2 -6 -12 -9
-35 -7 -47 5 -73 -18 -51 -44 9 -12 24 -15 51 -11 44 6 52 -8 10 -18 -66 -14
-117 41 -72 77 25 20 91 22 97 3z m44 -16 l11 -21 24 23 c13 12 26 20 29 17 3
-2 -4 -13 -15 -23 -11 -10 -20 -26 -20 -37 0 -10 -4 -18 -10 -18 -5 0 -10 6
-10 13 0 8 -9 22 -20 32 -21 19 -26 35 -10 35 5 0 14 -9 21 -21z m164 1 c0 -8
4 -21 8 -27 14 -22 -3 -33 -49 -33 l-44 0 0 41 0 40 43 -3 c29 -2 42 -8 42
-18z m115 10 c0 -5 -13 -10 -30 -10 -16 0 -30 -4 -30 -9 0 -4 11 -6 25 -3 15
2 25 0 25 -7 0 -6 -14 -11 -32 -11 -39 0 -26 -17 17 -23 24 -3 21 -4 -12 -6
l-43 -1 0 40 c0 40 0 40 40 40 22 0 40 -4 40 -10z m97 2 c7 -4 12 -22 10 -40
-2 -32 -11 -41 -22 -22 -3 6 -15 10 -26 10 -10 0 -19 -4 -19 -10 0 -5 -4 -10
-10 -10 -5 0 -10 18 -10 40 0 38 1 40 33 40 17 0 38 -4 44 -8z"/>
<path d="M1080 530 c0 -5 14 -10 30 -10 17 0 30 5 30 10 0 6 -13 10 -30 10
-16 0 -30 -4 -30 -10z"/>
<path d="M1433 601 c-15 -25 -17 -87 -3 -96 26 -16 6 -27 -44 -23 -30 1 -52 0
-49 -4 2 -5 88 -8 191 -7 114 0 179 4 167 9 -15 7 -16 9 -4 9 9 1 22 8 29 16
16 20 44 19 61 -1 11 -14 25 -15 84 -9 80 9 86 9 140 -1 22 -4 49 -6 60 -5 11
1 47 1 80 1 33 0 67 5 75 10 11 7 0 10 -37 10 l-53 0 0 39 0 40 48 3 47 3 -37
9 c-21 4 -46 5 -55 1 -10 -5 -22 -7 -28 -5 -20 7 -125 6 -125 -1 0 -15 -34
-19 -49 -6 -12 11 -59 15 -201 16 -102 0 -207 3 -235 7 -43 5 -52 3 -62 -15z
m102 -13 c27 -12 34 -45 13 -66 -7 -7 -34 -12 -60 -12 l-48 0 0 38 c0 21 3 42
7 45 10 11 60 8 88 -5z m135 -8 c0 -5 -16 -10 -35 -10 -19 0 -35 -4 -35 -9 0
-4 11 -6 24 -4 13 3 27 0 30 -6 5 -7 -4 -11 -23 -11 -44 0 -38 -18 7 -23 34
-3 33 -4 -10 -5 l-48 -2 0 40 0 40 45 0 c25 0 45 -4 45 -10z m100 0 c0 -5 -13
-10 -30 -10 -38 0 -40 -19 -2 -21 l27 -2 -27 -4 c-16 -2 -28 -11 -28 -19 0 -8
-4 -14 -10 -14 -5 0 -10 18 -10 40 0 40 0 40 40 40 22 0 40 -4 40 -10z m110 0
c0 -5 -16 -10 -35 -10 -19 0 -35 -4 -35 -8 0 -5 14 -7 30 -4 18 3 30 0 30 -7
0 -6 -13 -11 -30 -11 -43 0 -37 -18 8 -23 34 -3 33 -4 -10 -5 l-48 -2 0 40 0
40 45 0 c25 0 45 -4 45 -10z m94 -40 c3 0 6 11 6 25 0 14 5 25 10 25 6 0 10
-18 10 -40 0 -45 -7 -48 -43 -20 -14 11 -28 20 -31 20 -3 0 -6 -9 -6 -20 0
-11 -4 -20 -10 -20 -5 0 -10 19 -10 41 l0 41 34 -26 c19 -14 37 -26 40 -26z
m126 39 c0 -7 -9 -9 -23 -6 -12 4 -29 2 -37 -3 -12 -8 -9 -10 11 -10 14 0 33
-6 43 -13 17 -13 17 -14 1 -30 -18 -19 -52 -22 -75 -7 -11 7 -4 10 28 10 23 0
42 5 42 10 0 6 -13 10 -29 10 -33 0 -46 13 -37 35 6 18 76 21 76 4z"/>
<path d="M1460 551 c0 -27 3 -31 28 -31 36 0 55 13 50 36 -2 14 -13 20 -41 22
-35 3 -37 2 -37 -27z"/>
<path d="M2175 570 c-40 -7 -39 -14 3 -10 12 1 22 -3 22 -9 0 -6 -13 -11 -30
-11 -16 0 -30 -4 -30 -10 0 -5 17 -10 38 -10 34 0 37 2 38 30 1 17 1 29 0 29
-1 -1 -19 -5 -41 -9z"/>
<path d="M2188 443 c17 -2 47 -2 65 0 17 2 3 4 -33 4 -36 0 -50 -2 -32 -4z"/>
<path d="M1423 409 c-27 -10 -39 -49 -24 -78 13 -24 50 -31 149 -28 75 2 92
11 92 50 0 10 -5 27 -11 38 -9 17 -18 19 -76 15 -36 -3 -75 -1 -87 3 -11 5
-31 5 -43 0z m43 -15 c16 -4 20 -11 16 -30 -3 -17 0 -24 12 -24 9 0 16 -4 16
-10 0 -5 -21 -8 -47 -7 -42 2 -48 5 -51 25 -7 47 7 59 54 46z m64 -29 c0 -14
5 -25 10 -25 6 0 10 11 10 25 0 22 4 25 35 25 33 0 35 -2 35 -35 0 -31 -3 -35
-25 -35 -21 0 -25 5 -26 33 -2 27 -2 28 -6 7 -7 -35 -19 -46 -38 -30 -17 14
-21 60 -5 60 6 0 10 -11 10 -25z"/>
<path d="M1420 360 c0 -15 7 -20 25 -20 18 0 25 5 25 20 0 15 -7 20 -25 20
-18 0 -25 -5 -25 -20z"/>
</g>
</svg>
